# xmcd
#
# Track frame offsets:
#	150
#	23657
#	50299
#	73981
#	94361
#	110582
#	134921
#	155012
#	172628
#	189570
#	208021
#	229337
# Disc length: 3303 seconds
# Revision: 1
# Processed by: cddbd v1.5.1PL2 Copyright (c) Steve Scherf et al.
#
# Submitted via: libkcddb 0.21
#
DISCID=ae0ce50c
DTITLE=Djeneba Seck - Djourou
DYEAR=2000
DGENRE=Malienne
TTITLE0=Atikoro
TTITLE1=Abiban
TTITLE2=Mali Dje
TTITLE3=Ndiyani
TTITLE4=Djourou
TTITLE5=A Mewome
TTITLE6=Army Mali
TTITLE7=Nten Nko File
TTITLE8=Sama
TTITLE9=Tileke
TTITLE10=Fourou
TTITLE11=
EXTD=chanteuse malienne
EXTT0=
EXTT1=
EXTT2=
EXTT3=
EXTT4=
EXTT5=
EXTT6=
EXTT7=
EXTT8=
EXTT9=
EXTT10=
EXTT11=
PLAYORDER=
